<svg t="1564583134436" class="icon" viewBox="0 0 1024 1024" version="1.1" xmlns="http://www.w3.org/2000/svg" p-id="18191" width="64" height="64"><path d="M512 14.473928C236.873738 14.473928 13.804965 237.542701 13.804965 512.668963c0 275.126262 223.068773 498.195035 498.195035 498.195035s498.195035-223.068773 498.195035-498.195035c0-275.126262-223.068773-498.195035-498.195035-498.195035z m304.439007 355.03694l-341.536049 334.48153c-1.702815 2.919112-3.770519 5.838223-6.568001 8.635705L452.279843 728.561587c-8.878964 8.878964-19.217484 12.771113-23.231262 8.757334l-162.740468-170.281506c-4.013778-4.013778 0-14.473928 8.757334-23.231262L291.120561 527.872669c8.878964-8.878964 19.217484-12.771113 23.231262-8.757335l121.994536 127.5895 332.048937-325.237676c8.878964-8.878964 23.109633-8.878964 31.988598 0l16.055113 16.055113c8.757335 8.757335 8.757335 23.109633 0 31.988597z" fill="#2F7DCD" p-id="18192"></path></svg>